<svg id="e1aqyMnEWR21" xmlns="http://www.w3.org/2000/svg" xmlns:xlink="http://www.w3.org/1999/xlink" viewBox="0 0 127 126" shape-rendering="geometricPrecision" text-rendering="geometricPrecision" project-id="8ef1e757f10b4595918a3d238b142bca" export-id="9bc0a5dfbe18429e947e5505de5636d5" cached="false"><defs><linearGradient id="e1aqyMnEWR22-fill" x1="0" y1="-62.8325" x2="0" y2="62.8325" spreadMethod="pad" gradientUnits="userSpaceOnUse" gradientTransform="translate(0 0)"><stop id="e1aqyMnEWR22-fill-0" offset="0%" stop-color="#afc1dc"/><stop id="e1aqyMnEWR22-fill-1" offset="100%" stop-color="#e2e5ed"/></linearGradient></defs><circle r="62.8325" transform="translate(63.5668 62.8325)" fill="url(#e1aqyMnEWR22-fill)"/><path d="M78.7272,46.3258c-11.3118,0-35.7793-2.941-35.7793-2.941s-4.8923,5.3816-7.7203,8.2095c-5.2685,5.2685-4.8103,11.9368-5.5088,20.2538.8681,23.1157,15.6668,41.5339,33.8534,41.5339c18.082,0,32.8213-18.2117,33.8365-41.1493-.9955-10.2654-7.907-25.9069-18.6815-25.9069Z" fill="#f7dece"/><path d="M63.5737,102.069c-6.6373,0-10.11-3.2803-10.4833-3.6564-.534-.5265-.837-1.2436-.8423-1.9935s.2875-1.4712.814-2.0053c.5266-.534,1.2436-.837,1.9936-.8423.7499-.0053,1.4712.2876,2.0052.8141.1442.1329,2.2793,2.0276,6.5128,2.0276c4.2956,0,6.4279-1.9513,6.5184-2.0333.5431-.5088,1.2636-.785,2.0076-.7697s1.4525.321,1.9742.8517c.5174.5284.8057,1.2393.8025,1.9788s-.2976,1.448-.8195,1.9719c-.3733.3761-3.846,3.6564-10.4832,3.6564Zm2.8279-14.1397h-5.6559c-.75,0-1.4693-.2979-1.9997-.8282-.5303-.5304-.8283-1.2497-.8283-1.9997s.298-1.4693.8283-1.9997c.5304-.5303,1.2497-.8283,1.9997-.8283h5.6559c.75,0,1.4693.298,1.9997.8283.5303.5304.8283,1.2497.8283,1.9997s-.298,1.4693-.8283,1.9997c-.5304.5303-1.2497.8282-1.9997.8282Z" fill="#c1694f"/><path d="M49.4334,76.6165c-.75,0-1.4693-.2979-1.9996-.8283-.5304-.5303-.8283-1.2496-.8283-1.9996v-5.656c0-.75.2979-1.4693.8283-1.9996s1.2496-.8283,1.9996-.8283s1.4693.2979,1.9997.8283c.5303.5303.8283,1.2496.8283,1.9996v5.656c0,.75-.298,1.4693-.8283,1.9996-.5304.5304-1.2497.8283-1.9997.8283Zm28.2796,0c-.75,0-1.4693-.2979-1.9997-.8283-.5303-.5303-.8283-1.2496-.8283-1.9996v-5.656c0-.75.298-1.4693.8283-1.9996.5304-.5304,1.2497-.8283,1.9997-.8283s1.4693.2979,1.9996.8283c.5304.5303.8283,1.2496.8283,1.9996v5.656c0,.75-.2979,1.4693-.8283,1.9996-.5303.5304-1.2496.8283-1.9996.8283Z" fill="#662113"/><path d="M63.5667,23.1211c23.2033,0,37.6993,17.1204,37.6993,31.3875c0,14.2642-2.9014,19.9766-5.8,14.2642-2.9015-5.704-5.8001-14.2388-5.8001-14.2388s-9.8357,6.3714-17.5418-2.8817c0,0,3.0457,17.1205-14.3576,0c0,0,2.9015,11.4165-14.4989-2.8505c0,0-8.7016,5.7068-11.6003,19.971-.8031,3.9619-5.8001,0-5.8001-14.2642-.0028-14.2671,11.5974-31.3875,37.6995-31.3875Z" fill="#c82333"/><circle r="1.07713" transform="translate(79.7236 87.747)" fill="#ff9494"/><circle r="0.538564" transform="translate(81.3393 90.4409)" fill="#ff9494"/><circle r="1.61569" transform="translate(79.1841 93.6723)" fill="#ff9494"/><circle r="1.07713" transform="translate(84.0322 94.2099)" fill="#ff9494"/><circle r="1.61569" transform="translate(86.7231 90.4399)" fill="#ff9494"/></svg>
