<svg id="etUdjgqRBx01" xmlns="http://www.w3.org/2000/svg" xmlns:xlink="http://www.w3.org/1999/xlink" viewBox="0 0 126 126" shape-rendering="geometricPrecision" text-rendering="geometricPrecision" project-id="fdd8f344115b41a0a5cde8c6f4562528" export-id="902aca35c3874ebf9b664a1e7dc3c96d" cached="false"><defs><linearGradient id="etUdjgqRBx02-fill" x1="0" y1="-62.8325" x2="0" y2="62.8325" spreadMethod="pad" gradientUnits="userSpaceOnUse" gradientTransform="translate(0 0)"><stop id="etUdjgqRBx02-fill-0" offset="0%" stop-color="#afc1dc"/><stop id="etUdjgqRBx02-fill-1" offset="100%" stop-color="#e2e5ed"/></linearGradient></defs><circle r="62.8325" transform="translate(63.1684 62.8325)" fill="url(#etUdjgqRBx02-fill)"/><path d="M64.5774,87.6246c0-.7682-.2821-1.4934-.9318-1.9769-.4533-.3375-.8511-.7127-1.1634-1.1332-.1813-.2418-.3349-.4911-.466-.7428-.1486-.2922-.2669-.5843-.36-.8739-.1057-.3325-.1813-.6598-.2368-.9796-.063-.3652-.0957-.7177-.1183-1.0627-.0227-.3904-.0277-.763-.0277-1.1206c0-.3299-.0026-.6497-.0026-.9419v-.2116-1.4733-.5842c0,0,0-8.1089,0-10.9343c0-1.3372-.3853-2.5737-1.5688-3.7573-2.6417-2.6417-6.6986-1.6193-6.9404-1.6973L43.58,62.3662c2.3772,3.2385,5.7013,5.8272,9.7481,7.3081v3.4122C39.6288,76.9394,29.6816,88.7954,29.6816,105.527h13.0068h9.0182v-1.952c0-1.025.0529-1.962.1638-2.823.1083-.8635.277-1.6543.5138-2.3796.1585-.4835.35-.9393.5742-1.3674.2996-.5716.6674-1.0878,1.0955-1.5412.2467-.2593,2.0449-2.2841,4.6487-2.2841c4.1851.0003,5.8748-2.1503,5.8748-5.5551Z" fill="#f7dece"/><path d="M71.895,72.7262v-5.0517c3.8654-2.4452,7.6379-9.8488,7.6379-18.7609v-5.8173C78.9638,31.4469,69.057,22.4642,57.4075,23.0334c-11.2139.549-19.9547,9.7532-20.0782,20.8335L32.6907,50.233c-.3777.5011-.559,1.0502-.2593,1.6269.3098.5868.962.6951,1.4908.7757l3.8202.5816.3601,3.6263c0,0,14.8073.0555,17.1971.0555c10.0579,0,9.4964,2.7398,9.4964,8.6905c0,2.8254,0,10.4231,0,10.4231v.345c0,.3274-.005.6447-.005.9443c0,.3677.0303.7127.0303,1.0199c0,.6497.612,1.3422.7051,1.4555.0529.063.1159.1235.1915.1889.0856.0706.1914.141.3273.214.1536.0856.3475.1688.5892.2468.2771.0881.622.1662,1.0351.2266.3223.0429.6899.078,1.1054.0931.748-.0402,1.5664.0076,2.405.2015c5.5503,1.2742,9.4686,9.9875,3.9133,16.749-5.5577,6.7618-13.6564,4.4168-16.9554,2.4828-.7983-.4658-2.2009-1.2112-2.4628-.1862-.1083.4232-.1839.9112-.2443,1.4602-.0655.628-.1034,1.333-.1008,2.121v1.951h26.1345h15.4747c-.0002-17.2949-10.6297-29.38-25.0441-32.7998Z" fill="#f7dece"/><g mask="url(#etUdjgqRBx08)"><g><rect width="67.2573" height="33.6286" rx="0" ry="0" transform="translate(29.6836 72.5664)" fill="#c82333"/></g><mask id="etUdjgqRBx08" mask-type="alpha" x="-150%" y="-150%" height="400%" width="400%"><path d="M64.5793,87.6246c0-.7682-.282-1.4934-.9317-1.9769-.4534-.3375-.8511-.7127-1.1635-1.1332-.1813-.2418-.3349-.4911-.4659-.7428-.1486-.2922-.2669-.5843-.3601-.8739-.1057-.3325-.1813-.6598-.2367-.9796-.063-.3652-.0958-.7177-.1183-1.0627-.0227-.3904-.0277-.763-.0277-1.1206c0-.3299-.0026-.6497-.0026-.9419v-.2116-1.4733-.5842c0,0,0-8.1089,0-10.9343c0-1.3372-.3854-2.5737-1.5688-3.7573-2.6417-2.6417-6.6987-1.6193-6.9404-1.6973L43.582,62.3662c2.3772,3.2385,5.7013,5.8272,9.7481,7.3081v3.4122C39.6308,76.9394,29.6836,88.7954,29.6836,105.527h13.0068h9.0182v-1.952c0-1.025.0528-1.962.1637-2.823.1083-.8635.2771-1.6543.5138-2.3796.1586-.4835.3501-.9393.5743-1.3674.2996-.5716.6674-1.0878,1.0954-1.5412.2468-.2593,2.0449-2.2841,4.6488-2.2841c4.185.0003,5.8747-2.1503,5.8747-5.5551Z" fill="#fff"/><path d="M71.8969,72.7262v-5.0517c3.8655-2.4452,7.638-9.8488,7.638-18.7609v-5.8173c-.5691-11.6494-10.476-20.6321-22.1254-20.0629-11.2139.549-19.9548,9.7532-20.0782,20.8335L32.6927,50.233c-.3778.5011-.5591,1.0502-.2593,1.6269.3097.5868.962.6951,1.4908.7757l3.8202.5816.36,3.6263c0,0,14.8074.0555,17.1972.0555c10.0579,0,9.4963,2.7398,9.4963,8.6905c0,2.8254,0,10.4231,0,10.4231v.345c0,.3274-.005.6447-.005.9443c0,.3677.0303.7127.0303,1.0199c0,.6497.612,1.3422.7052,1.4555.0528.063.1158.1235.1914.1889.0856.0706.1915.141.3274.214.1536.0856.3474.1688.5892.2468.277.0882.6219.1662,1.035.2266.3224.0429.69.078,1.1055.0931.748-.0402,1.5664.0076,2.4049.2015c5.5503,1.2742,9.4687,9.9875,3.9133,16.749-5.5577,6.7618-13.6564,4.4168-16.9554,2.4828-.7982-.4658-2.2009-1.2112-2.4628-.1862-.1083.4232-.1839.9112-.2443,1.4602-.0654.628-.1033,1.333-.1007,2.121v1.951h26.1344h15.4748c-.0002-17.2949-10.6297-29.38-25.0442-32.7998Z" fill="#f7dece"/></mask></g></svg>
