<svg id="eegnw1huEio1" xmlns="http://www.w3.org/2000/svg" xmlns:xlink="http://www.w3.org/1999/xlink" viewBox="0 0 126 126" shape-rendering="geometricPrecision" text-rendering="geometricPrecision" project-id="f5f268a9a44245b3b9b473843961d73a" export-id="a862555fdfc54c7f913862af6bb0e446" cached="false"><defs><linearGradient id="eegnw1huEio2-fill" x1="0" y1="-62.8325" x2="0" y2="62.8325" spreadMethod="pad" gradientUnits="userSpaceOnUse" gradientTransform="translate(0 0)"><stop id="eegnw1huEio2-fill-0" offset="0%" stop-color="#afc1dc"/><stop id="eegnw1huEio2-fill-1" offset="100%" stop-color="#e2e5ed"/></linearGradient></defs><circle r="62.8325" transform="translate(62.8325 62.8325)" fill="url(#eegnw1huEio2-fill)"/><path d="M47.2477,48.2327l.5388-.0462c.204-.0231.3887-.0962.5427-.204l-.0039.0039c.5158,1.7782,1.147,3.6487,1.936,5.6078c1.0123,2.5633,2.0091,4.6686,3.1253,6.7008l-.154-.3079c-.0924,1.401-.204,2.8404-.3502,4.2337-.0693.8583-.2387,1.6588-.4965,2.4132l.0192-.0693c-.0462.0193-.1116,8.0056-.1116,8.0056.0038,5.2075,3.6102,9.5682,8.4597,10.7268l.077.0153c.2194-.558.7505-.9468,1.3741-.9468h2.2092c.6197.0077,1.1508.3926,1.3702.9353l.0038.0115c4.9381-1.1623,8.5598-5.523,8.5791-10.7344c0,0-.1347-7.9555-.204-8.0094-.2117-.6736-.381-1.4664-.4696-2.2824l-.0038-.0577c-.1347-1.401-.2232-2.8058-.3502-4.2337.9506-1.7166,1.9475-3.8181,2.825-5.985l.1463-.408c.789-1.959,1.4009-3.8257,1.9359-5.6077.1501.1078.3349.1809.535.204h.0039l.5426.0462c.6543.0692,1.2317-.4696,1.2856-1.3048l.585-7.4321c0-.0039,0-.0077,0-.0077c0-.6274-.4696-1.1431-1.0738-1.2201h-.0077-.0655c.1501-1.0815.2348-2.3285.2348-3.5948c0-2.7635-.408-5.4346-1.1662-7.9479l.05.1963c-2.2207-4.8726-6.6238-8.4097-11.9275-9.3988l-.1001-.0154c-1.1392-.2348-2.4671-.3926-3.8219-.4311h-.0346-.0462c-1.3817.0269-2.7096.1809-3.9951.4542l.1386-.0231c-5.3961,1.0161-9.7915,4.5531-11.9853,9.3103l-.0424.1039c-.7159,2.3093-1.1277,4.965-1.1277,7.7131c0,1.2817.0885,2.5441.2617,3.7757l-.0154-.1424c-.6119.0693-1.0853.5812-1.0853,1.2047v.0269l.585,7.4321c.0539.8545.6389,1.3702,1.2701,1.301l.0039-.0116Z" fill="#f7dece"/><path d="M104.547,97.4219c-.269-11.7005-1.439-14.3485-2.071-16.1421-.25-.7197-.454-5.5846-8.4901-8.7407-4.9265-1.9398-11.2848-1.9783-16.6655-4.253v6.3275c-.0115,6.8048-4.8842,12.4664-11.331,13.7019l-.0885.0154c-.1193.7005-.7197,1.2239-1.4394,1.2316h-.0693v4.7726c0,4.6648,3.7795,8.4439,8.4443,8.4439s8.4444-3.7791,8.4444-8.4439v-3.3331c-2.3401-.3503-4.1144-2.344-4.1144-4.7533c0-2.6519,2.1515-4.8034,4.8033-4.8034s4.8034,2.1515,4.8034,4.8034c0,2.1014-1.351,3.8873-3.2292,4.5416l-.0346.0116v3.5332.1809c0,5.896-4.7803,10.677-10.6767,10.677s-10.6767-4.781-10.6767-10.677c0-.0655,0-.127,0-.1925v.0077-4.8149c-.6851-.0462-1.2393-.5619-1.3471-1.2239v-.0077c-6.5045-1.2663-11.3541-6.9087-11.3695-13.6865v-6.3775c-5.4037,2.3209-11.8005,2.367-16.754,4.3107-8.0595,3.1522-8.2442,8.0056-8.4905,8.7369-.6158,1.8012-1.8013,4.4377-2.0707,16.1459-.0462,1.5395,0,3.8988,4.6417,5.9618c10.1071,3.964,23.1277,5.196,35.9636,6.081h1.2316c12.8628-.877,25.8642-2.105,35.9636-6.081c4.6223-2.051,4.6643-4.3992,4.6223-5.9541ZM48.0423,92.6493h-4.7957v4.8149h-3.4254v-4.7995h-4.7957v-3.4255h4.7957v-4.7956h3.4254v4.7956h4.7957v3.4101Z" fill="#c82333"/><path d="M84.5673,86.2074c0-1.4318-1.1585-2.5941-2.5903-2.5941s-2.5903,1.1585-2.5903,2.5903s1.1585,2.5902,2.5903,2.5902c1.4279,0,2.5864-1.1585,2.5903-2.5864Z"/></svg>
