<svg id="epzximtekrZ1" xmlns="http://www.w3.org/2000/svg" xmlns:xlink="http://www.w3.org/1999/xlink" viewBox="0 0 127 126" shape-rendering="geometricPrecision" text-rendering="geometricPrecision" project-id="fb069ad5936e44679cbce16c74f8b175" export-id="a1885b599b86470699ae0b9e98998c28" cached="false"><defs><linearGradient id="epzximtekrZ2-fill" x1="0" y1="-62.8325" x2="0" y2="62.8325" spreadMethod="pad" gradientUnits="userSpaceOnUse" gradientTransform="translate(0 0)"><stop id="epzximtekrZ2-fill-0" offset="0%" stop-color="#afc1dc"/><stop id="epzximtekrZ2-fill-1" offset="100%" stop-color="#e2e5ed"/></linearGradient><linearGradient id="epzximtekrZ24-fill" x1="0" y1="-62.8325" x2="0" y2="62.8325" spreadMethod="pad" gradientUnits="userSpaceOnUse" gradientTransform="translate(0 0)"><stop id="epzximtekrZ24-fill-0" offset="0%" stop-color="#afc1dc"/><stop id="epzximtekrZ24-fill-1" offset="100%" stop-color="#e2e5ed"/></linearGradient></defs><circle r="62.8325" transform="translate(63.6996 62.8325)" fill="url(#epzximtekrZ2-fill)"/><g mask="url(#epzximtekrZ23)"><g><path d="M77.6711,65.8867h-12.9605c-5.2291,0-9.7204,4.4942-9.7204,9.7204v55.0879h31.0714v-26.119l1.3328-5.1098v-23.8591c0-5.2291-4.4942-9.7204-9.7233-9.7204Z" fill="#c82333"/><path d="M65.6492,73.8262c-3.4807,0-6.8187,1.3827-9.2799,3.8438-2.4612,2.4612-3.8439,5.7993-3.8439,9.28c0,3.4806,1.3827,6.8187,3.8439,9.2799s5.7992,3.8441,9.2799,3.8441v-26.2478Z" fill="#970202"/><path d="M65.6508,76.7422c-2.7072,0-7.2178,2.9897-7.2178,2.9897s-2.9896,4.5105-2.9896,7.2177s1.0754,5.3035,2.9896,7.2177c1.9143,1.9143,4.5106,2.9897,7.2178,2.9897v-20.4148Z" fill="#c82333"/><path d="M71.4832,73.8262c-3.4807,0-6.8188,1.3827-9.28,3.8438-2.4611,2.4612-3.8438,5.7993-3.8438,9.28c0,3.4806,1.3827,6.8187,3.8438,9.2799c2.4612,2.4612,5.7993,3.8441,9.28,3.8441v-26.2478Z" fill="#970202"/><path d="M71.4828,76.7422c-2.7072,0-5.3035,1.0754-7.2177,2.9897-1.9143,1.9142-2.9897,4.5105-2.9897,7.2177s1.0754,5.3035,2.9897,7.2177c1.9142,1.9143,4.5105,2.9897,7.2177,2.9897v-20.4148Z" fill="#c82333"/><path d="M47.6082,130.695h20.864v-41.559c-1.3398-.2341-2.6967-.356-4.0567-.3645-6.4563,0-12.648,2.5647-17.2133,7.1299-4.5652,4.5656-7.1299,10.7566-7.1299,17.2136c0,6.917,2.8989,13.147,7.5359,17.58Z" fill="#970202"/><path d="M67.9517,78.6986v13.0976c-1.1684-.2036-2.3516-.3099-3.5376-.3179-2.8415-.0004-5.6552.559-8.2805,1.6462s-5.0106,2.681-7.0198,4.6902-3.603,4.3943-4.6902,7.0203c-1.0872,2.625-1.6466,5.439-1.6463,8.28.0003,3.44.8222,6.83,2.3973,9.887c1.5751,3.058,3.8578,5.696,6.6582,7.693h31.1938v-60.2731L67.9517,78.6986Z" fill="#c82333"/><path d="M84.4268,72.3672L98.5714,87.2817L86.0659,100.438l-.0059,8.883-11.4906,7.798-7.7022-12.071c0,0,16.528759-9.856775,16.4631-16.9439-.022135-2.389203-5.6549-5.6083-5.6549-5.6083l6.7514-10.1286Z" fill="#970202"/><path d="M84.4233,68.7207l15.9357,16.606c0,0,5.532,4.4562,0,9.7204-3.3222,3.1584-24.1366,17.1779-24.1366,17.1779l-6.4802-6.481L87.3981,88.5668l-9.7233-9.7204l6.7485-10.1257Z" fill="#c82333"/><path d="M72.4473,105.996c-3.278-1.56-6.3869-1.345-9.3937.414-1.4378.843-2.024,2.418.1779,2.94c2.2106.516,9.2158-3.354,9.2158-3.354Z" fill="#eec2ad"/><path d="M76.8659,111.589c.4054,5.148-6.4919,9.957-11.7239,9.33-3.7388-.449-6.9935-10.523-2.5577-11.821c3.9546-1.154,5.0483-4.747,9.7408-3.406c3.7271,1.068,4.3921,3.92,4.5408,5.897Z" fill="#f7dece"/><path d="M73.4059,113.58l-.6183-1.286c0,0-2.2485,3.345-5.3749,4.637-2.3711.968-4.3688,1.064-5.4158.892.4491.855.4579,1.001,1.047,1.546c3.2576.114,8.4634-1.633,10.362-5.789Zm-6.4657-.114c2.8872-1.977,3.7301-3.867,3.7301-3.867l-.942-1.193c0,0-3.3393,5.18-9.2654,4.914.0437.724-.0146.864.1983,1.604.7962.027,3.9342.146,6.279-1.458Z" fill="#e0aa94"/><path d="M58.5734,39.7291c.4014.9547.6107,1.9792.6159,3.0149s-.1936,2.0622-.5852,3.0209c-.3916.9588-.9684,1.831-1.6972,2.5668-.7289.7358-1.5956,1.3208-2.5506,1.7214-.958.3948-1.9844.5968-3.0205.5947s-2.0616-.2085-3.018-.6072c-.9563-.3987-1.8247-.9819-2.5556-1.7164-.7308-.7344-1.3098-1.6057-1.7037-2.564-.4012-.9551-.6102-1.9799-.6151-3.0158-.0048-1.0359.1945-2.0627.5867-3.0215s.9696-1.8309,1.699-2.5665c.7295-.7355,1.5968-1.3201,2.5523-1.7203.9576-.3945,1.9836-.5965,3.0193-.5943s2.0608.2086,3.0166.6073s1.8238.982,2.5541,1.7164c.7303.7343,1.3087,1.6055,1.702,2.5636Z" fill="#292f33"/><path d="M74.3517,60.1137c3.5084-4.1851,5.6024-9.5337,3.803-13.8558l-2.9748-7.1656c-16.081,6.0544-22.6983-2.2544-22.6983-2.2544s3.1497,7.5768-3.6105,11.4352L52.467,56.929c2.9397,7.0693,6.9469,12.1322,14.0075,9.2304l.2391.9507c.6008,2.3827.1604,4.3105,3.6689,4.4446c2.4527.0933,5.7657-4.2871,5.1649-6.6698l-1.1957-4.7712Z" fill="#f7dece"/><path d="M93.0947,41.4866c2.4031-6.4219-3.3801-11.304-8.303-11.8056-2.9864-.3033-5.6811,1.6011-6.9935,3.8817-5.9816-10.0149-14.9291-7.6555-20.6219-5.652-6.0311,2.1232-15.002,8.3672-11.4819,15.0778c3.5201,6.7136,15.2761,3.8264,15.2761,3.8264l4.2551,6.8593c-1.1491-5.9028,2.7705-7.221,4.5816-5.9348c1.9074,1.3561.6416,5.7044,1.5107,7.4193.8691,1.7148,3.8788,4.0654,3.8788,4.0654c1.849-2.3506,7.6848-10.4348,4.9579-20.2252c1.1287-.4229,2.8231-.1371,4.1909.5774c3.4763,1.8053.7378,10.7995,5.5732,13.643c4.6342,2.7268,7.3523-1.0237,7.3523-1.0237-4.7479.1575-6.4715-4.57-4.1763-10.709Z" fill="#292f33"/><path d="M54.9818,60.0637l-.8982.3733c-.0941.042-.1957.0647-.2987.0668s-.2055-.0164-.3013-.0544-.183-.0949-.2565-.1671c-.0734-.0723-.1317-.1585-.1714-.2536s-.06-.1972-.0596-.3003.0213-.205.0617-.2998c.0403-.0949.0992-.1807.1732-.2524s.1616-.1279.2576-.1653l.9012-.3733c.0946-.0444.1971-.0691.3015-.0727s.2083.014.3057.0517.1861.0947.2608.1677c.0748.0729.1339.1602.174.2567.04.0964.0601.2.059.3044s-.0233.2075-.0654.3031-.103.1817-.1793.253c-.0762.0714-.1661.1266-.2643.1622Z" fill="#bf6952"/><path d="M55.4238,54.0241c-.3783.1566-.8032.1567-1.1816.0003-.3783-.1564-.6792-.4564-.8365-.8344l-.5979-1.432c-.1574-.379-.1578-.805-.0011-1.1843s.4576-.6808.8366-.8382.8051-.1578,1.1844-.0011c.3792.1567.6808.4577.8382.8367l.5949,1.429c.0784.1878.1189.3892.1192.5927s-.0396.4051-.1173.5931c-.0778.1881-.1919.3589-.3359.5028s-.3149.2578-.503.3354Z" fill="#662113"/><path d="M56.2051,63.5655c.7087.8604,1.4844,1.5778,2.3214,2.1378c3.0768-1.7761,3.2927-4.4709,3.2927-4.4709l-5.4683,2.2719-.1458.0612Z" fill="#df1f32"/></g><mask id="epzximtekrZ23" mask-type="alpha" x="-150%" y="-150%" height="400%" width="400%"><circle r="62.8325" transform="translate(63.6996 62.8325)" fill="url(#epzximtekrZ24-fill)"/></mask></g></svg>
