<svg id="eaKWVeMOqzU1" xmlns="http://www.w3.org/2000/svg" xmlns:xlink="http://www.w3.org/1999/xlink" viewBox="0 0 127 126" shape-rendering="geometricPrecision" text-rendering="geometricPrecision" project-id="7bb505806ea3400498db161847d5d695" export-id="b00b61cb1298410eb409819861847135" cached="false"><defs><linearGradient id="eaKWVeMOqzU2-fill" x1="0" y1="-62.8325" x2="0" y2="62.8325" spreadMethod="pad" gradientUnits="userSpaceOnUse" gradientTransform="translate(0 0)"><stop id="eaKWVeMOqzU2-fill-0" offset="0%" stop-color="#afc1dc"/><stop id="eaKWVeMOqzU2-fill-1" offset="100%" stop-color="#e2e5ed"/></linearGradient></defs><circle r="62.8325" transform="translate(63.3012 62.8325)" fill="url(#eaKWVeMOqzU2-fill)"/><circle r="26.641" transform="translate(66.3187 54.7914)" fill="#c82333"/><path d="M72.88,57.5103c-1.3651,0-2.4525-.263-3.3264-.6684-1.3076-.6055-2.1545-1.5385-2.6876-2.47-.2656-.4632-.4496-.9237-.5651-1.3291-.1155-.4041-.1611-.7598-.1598-.972c0-.4054-.3275-.7329-.7316-.7329s-.7318.3275-.7318.7329c0,.2632.0324.5532.0968.8726.1126.5598.322,1.2041.6672,1.8712.514.9949,1.333,2.0405,2.5573,2.8327.3074.2026.6361.3838.9933.545.0563.2429.1355.6685.1344,1.1853c0,.3744-.0417.7907-.1544,1.219-.113.4282-.2967.8631-.5921,1.2886-.2269.3342-.1462.7879.1865,1.0175.3316.2296.7868.1479,1.0163-.1851.3999-.5761.6537-1.176.8042-1.7465.149-.572.2012-1.1169.2012-1.5935c0-.2376-.0134-.4618-.0321-.663.7033.1623,1.474.259,2.3236.259.404,0,.7317-.3274.7317-.7317.0002-.4039-.3273-.7316-.7316-.7316Z" fill="#bccbe1"/><path d="M76.123,48.0979c-.3517-.196-.7961-.0752-.996.2779-.1987.3504-.0738.7961.2779.996.5395.3088.8672.6497,1.0874,1.0029-.9022.3166-1.6996.4483-2.407.4483-1.0324-.0013-1.8766-.2739-2.5909-.6926-.7103-.4175-1.2834-.9907-1.7197-1.5827-.718-.98-1.651-1.8512-2.7518-2.4875-1.1007-.6335-2.3721-1.0309-3.7385-1.0309-1.1961,0-2.4566.3088-3.7077.9947-.5101.2794-.9544.6067-1.3397.9653-1.521.5852-2.8298.7974-3.9399.7974-1.5799-.0028-2.7587-.4243-3.5479-.8405-.3933-.2094-.6874-.4161-.8778-.5664-.0953-.0764-.1665-.1355-.2096-.1758l-.0429-.0416-.0081-.008c-.2806-.2872-.7411-.2954-1.0324-.0163-.2899.2805-.298.7423-.0188,1.0337.0429.0417.5438.5543,1.5062,1.066.4213.2227.9369.4416,1.533.6201-.1583.2228-.3747.5503-.6107.9637-.4523.7988-.972,1.921-1.235,3.2408-.082.3985.1759.7825.5718.8616.3961.0807.7799-.1785.8591-.5746.2216-1.1127.6779-2.1034,1.0766-2.8055.2001-.3545.3838-.6322.5168-.8228.0671-.0927.1195-.1665.1557-.2122.0175-.0229.031-.0388.0389-.0496l.0107-.0108.0013-.0026c.066-.0819.1102-.1746.1357-.2738.3717.0483.7624.0752,1.1773.0752.7678,0,1.6109-.0912,2.5183-.2967-.4524.9679-.6363,1.9801-.6378,2.9064.0028.9315.18,1.78.4982,2.454.173.3637.6094.5209.9732.3476s.5209-.6081.3476-.9733c-.2027-.4217-.3586-1.0902-.3558-1.8285-.0013-.7974.1732-1.6726.5854-2.4741.4147-.7999,1.0564-1.5289,2.0538-2.0766c1.0512-.5774,2.058-.8136,3.0043-.8164c1.0807.0028,2.0981.314,3.0082.8377.9076.5223,1.6996,1.2606,2.3036,2.0834.5315.7262,1.243,1.4404,2.1573,1.9801.9127.5397,2.0349.8954,3.3318.8927.8578,0,1.7893-.1529,2.7935-.4939l.0013.0511c0,.3584-.0563.6845-.1115.9156-.0268.1127-.055.2053-.0751.263-.0094.0296-.0161.0511-.0215.0645l-.0039.0108v.0013c-.1476.3743.0321.7974.4067.9477.3758.149.8014-.0335.9517-.4067.0201-.0524.3114-.784.3155-1.796c0-.58-.1007-1.2619-.4403-1.9344-.3354-.6758-.9141-1.3214-1.7785-1.8087Z" fill="#bccbe1"/><path d="M57.354,42.6345c.5037-.5934,1.2191-1.0605,2.0338-1.3733.8148-.3169,1.7224-.4739,2.5734-.4739.827,0,1.5989.1516,2.1627.4161.3692.1691.8026.0082.9704-.3571.1692-.3665.0095-.8027-.3558-.969-.8161-.3786-1.7773-.5477-2.7774-.5492-1.0282,0-2.0994.1839-3.0996.568-.996.3838-1.9223.9705-2.6203,1.7961-.2631.3073-.2242.7678.0832,1.0281.3088.2631.7719.223,1.0296-.0858Z" fill="#bccbe1"/><path d="M68.652,23.1957C50.6318,22.0868,35.4574,33.4234,35.8009,51.8934l-.0133,1.6715-7.8289,13.8254c-.4216.745-.4593,1.6484-.102,2.4271.357.7786,1.0658,1.3383,1.9061,1.5048l4.8382,1.3343l1.5195,14.659c.0403,1.4135.6686,2.7453,1.7344,3.6729c1.0659.929,2.4728,1.368,3.877,1.2108l3.8633.3075c.7543-.0833,1.5089.157,2.0739.6645.5652.5048.8888,1.2282.8888,1.9868v11.52h32.6887c0,0,0-5.586,0-7.814c0-2.2298.7705-7.3254,2.2283-9.6587c5.2998-8.4732,13.9261-12.981,15.3813-30.3569c1.4568-17.3787-8.9149-34.3411-30.2042-35.6527ZM90.4003,52.9942c-.7329,1.2109-1.9182,1.9652-3.2123,2.1881-.3972.0699-.6659.4457-.5986.8444.0711.3972.4483.6672.8457.596.2967-.0511.5893-.1248.878-.2175.3113.6456.467,1.3396.467,2.0309c0,.7383-.1757,1.4713-.5127,2.1343-.3357.662-.8323,1.2513-1.4848,1.7103-.8202.5758-1.7532.8496-2.6794.8511-.0737,0-.1464-.008-.2188-.0094-.0162-.1223-.031-.243-.0524-.3625v-.0015c-.1596-.847-.4912-1.6228-.9436-2.2968l-.0552-.0818-.075-.0644c-.5531-.4753-1.2875-1.2539-1.854-2.0472-.2859-.3959-.5287-.7974-.6926-1.1544-.1651-.3584-.2417-.67-.2389-.8539c0-.0819.0121-.1384.0282-.1759.0134-.0362.0268-.0578.055-.0873.2847-.2833.2847-.7478,0-1.035-.2859-.2833-.7476-.2833-1.0322,0-.18.1772-.3143.3918-.3961.6188-.0845.223-.1155.455-.1155.6793.0026.506.1557.9866.3704,1.4619.3263.7102.8121,1.4149,1.3397,2.0592.4955.6041,1.0203,1.1478,1.493,1.5639.3262.4981.5636,1.0619.6805,1.6834.0483.2619.0738.5222.0791.7706v.0054c0,.0321.0014.0645.0014.0992c0,1.1036-.3934,2.1493-1.0687,2.9722-.6764.8215-1.6282,1.4188-2.7572,1.631-.2941.0563-.5867.0832-.8741.0832-1.5503.0013-2.9842-.7786-3.8459-2.0163.4645-.4712.8606-1.0229,1.1612-1.6499v.0013c.3745-.7746.5718-1.5961.6067-2.4095.0175-.4027-.2939-.7437-.6966-.7611-.4054-.0188-.7452.2952-.764.698-.0254.6201-.1757,1.2416-.4617,1.835l-.0013.0027c-.3074.6349-.7343,1.1666-1.2445,1.5868l-.0026.0013c-.8403.6859-1.8996,1.0645-2.9828,1.0645-.6818,0-1.3746-.149-2.0324-.4672-1.2175-.5852-2.0632-1.6282-2.4377-2.8217h-.0013c-.1423-.4524-.2161-.9289-.2161-1.4067c0-.6833.149-1.3761.4671-2.0351.1759-.3638.0215-.8013-.3422-.9746-.3625-.1758-.7987-.0242-.9746.3398-.4134.859-.6135,1.7733-.6135,2.67c0,.4349.0511.8645.1397,1.2846-.5705.3115-1.2135.5114-1.9089.561h-.0013c-.1141.0082-.2256.0134-.3383.0134-1.0982,0-2.1143-.3812-2.9198-1.027-.7047-.5637-1.2442-1.3222-1.5316-2.2056.5128-.5059.9397-1.1006,1.2524-1.7598.1718-.3652.016-.8001-.3489-.972-.3638-.1731-.8028-.0174-.9734.349-.2886.6123-.7102,1.1559-1.2243,1.5895-.7329.6188-1.6566,1.0162-2.6847,1.0902h-.0013c-.1141.0079-.2256.0133-.3369.0133-2.3196,0-4.301-1.7142-4.6367-4.0069l-.0013-.0067v-.004c-.0188-.1101-.0309-.2242-.0389-.3423-.008-.1115-.012-.2269-.012-.3397c0-.294.0282-.5852.0806-.8659.0711-.3974-.1905-.7786-.5879-.8524-.3946-.0711-.7771.188-.8523.5853-.066.3677-.102.7463-.102,1.1329l.0013.0442c-.6577-.0738-1.2955-.2846-1.866-.6188-.7223-.4214-1.3358-1.0389-1.7599-1.8311-.3772-.7075-.5559-1.4605-.5559-2.2069c0-.9639.2995-1.9101.8512-2.7009.2135.3006.4537.5839.7235.8496.6175.6054,1.3317,1.0537,2.0875,1.3463.3771.1479.7988-.0403.945-.4187.1477-.3759-.0416-.7987-.4161-.9451-.5786-.2229-1.121-.5637-1.5909-1.0255v-.0013c-.4161-.4054-.7383-.8673-.9679-1.3626-.2952-.6283-.4429-1.3114-.4429-1.9893.0011-1.1894.4442-2.368,1.3382-3.2808.7612-.776,1.7196-1.2298,2.7143-1.3679h.0013.0026c.2122-.0269.4242-.0416.6363-.0416c1.1868.0013,2.3667.4484,3.2822,1.3411.2887.2806.7504.2778,1.0337-.012.282-.2873.2767-.7491-.0107-1.0324-1.1653-1.1411-2.674-1.725-4.1844-1.7518.1704-.6995.4981-1.3503.9571-1.8981.6377-.7597,1.509-1.321,2.5507-1.5612.3544-.0791.7033-.1194,1.0509-.1194.6122,0,1.2082.1233,1.7587.3463-.1557.545-.2417,1.1169-.2417,1.7103c0,.4026.3264.7288.7303.7288s.7301-.3262.7301-.7288c0-.6391.1304-1.2498.3586-1.8042.353-.8484.9504-1.5706,1.7008-2.0807.753-.5102,1.6538-.8067,2.6324-.8067c1.4095,0,2.6674.616,3.5291,1.6.7262.8256,1.1626,1.9048,1.1626,3.0916c0,.4026.329.7288.7316.7288.4041,0,.733-.3262.733-.7288c0-1.3506-.4376-2.603-1.1774-3.6165.3787-.5235.8606-.9692,1.4189-1.2994.698-.4107,1.5102-.6483,2.3815-.6483c1.004,0,1.9262.3128,2.6874.847.7639.5343,1.3599,1.2915,1.6969,2.1706h-.0013c.1988.5223.3075,1.0833.3075,1.6754c0,.4028.3288.7302.7316.7302s.7329-.3274.7329-.7302c0-.6041-.0927-1.1853-.2551-1.737.8673-.8054,2.015-1.2619,3.2003-1.2619.6189,0,1.2472.1222,1.8538.3812.8457.3666,1.5251.9451,2.0096,1.6513.4847.7074.7691,1.537.8189,2.396.0054.0886.0095.176.0095.2644-.0028.6203-.125,1.2459-.3853,1.8539-.1596.3707.012.8002.3825.9585.3718.1598.8-.0108.9611-.3812.2712-.631.4269-1.2821.4793-1.9357.7167.0509,1.4147.2684,2.0324.6335.7047.4162,1.3074,1.0255,1.7183,1.8068.3597.6833.5288,1.4095.5303,2.129c0,.3289-.0403.6551-.1113.9746-.4377-.1718-.894-.2872-1.3492-.3544-.3974-.055-.7693.2242-.8228.6242-.0578.4002.2214.7692.6188.8243.4604.0656.9128.1973,1.3451.4013.0752.125.1906.2283.3355.2915.0886.0388.1839.0578.2766.0578.2698.1798.5154.3825.7344.604l.0013.0013c.8779.8845,1.349,2.078,1.349,3.2982-.0001.8285-.219,1.6662-.6835,2.4274Z" fill="#f7dece"/><path d="M82.8061,46.5306c-.3625-.3128-.7517-.5692-1.164-.7491-.4135-.1826-.8484-.2913-1.2927-.2913-.404,0-.7303.3276-.7303.7316s.3263.7304.7303.7304c.2685,0,.6068.0927.9665.2994.5356.3073,1.0928.8604,1.4955,1.5504.4082.6913.6685,1.5115.6659,2.3613-.0028.933-.2967,1.9076-1.0941,2.8754-.2551.31-.2121.7719.0992,1.0283.3116.2591.7733.2134,1.0298-.0953c1.0027-1.2123,1.4309-2.5546,1.4296-3.8084c0-.7625-.1557-1.4928-.4107-2.1586-.3867-.9975-1.0014-1.8487-1.725-2.4741Z" fill="#c0cde2"/><path d="M77.7503,43.2181c-2.0096,0-3.6219-.7409-4.7388-1.7088-.5584-.4834-.9854-1.0229-1.2659-1.5411-.2846-.5168-.4135-1.0095-.4108-1.3787c0-.4026-.3275-.7301-.7303-.7301-.4041,0-.7316.3275-.7316.7301.0026.6861.2175,1.3921.588,2.0769.3907.7141.9599,1.408,1.6808,2.0174-.1451.2014-.345.4645-.6029.7424-.5558.6081-1.3584,1.2806-2.3184,1.623-.3771.1341-.5772.5516-.4416.9328.1355.3813.5518.5773.9343.4429c1.3009-.467,2.2727-1.3194,2.9345-2.0458.2941-.3222.5222-.6187.6928-.855c1.2081.6967,2.7022,1.1572,4.4097,1.1572.4041,0,.7302-.3275.7302-.7303.0001-.4039-.3261-.7329-.73-.7329Z" fill="#bccbe1"/></svg>
