<svg id="eQcG1FE3nPj1" xmlns="http://www.w3.org/2000/svg" xmlns:xlink="http://www.w3.org/1999/xlink" viewBox="0 0 127 126" shape-rendering="geometricPrecision" text-rendering="geometricPrecision" project-id="593d97a790fa4c939dcbf083878dc9b1" export-id="24087b22c7994295932f49407ef818cc" cached="false"><defs><linearGradient id="eQcG1FE3nPj2-fill" x1="0" y1="-62.8325" x2="0" y2="62.8325" spreadMethod="pad" gradientUnits="userSpaceOnUse" gradientTransform="translate(0 0)"><stop id="eQcG1FE3nPj2-fill-0" offset="0%" stop-color="#afc1dc"/><stop id="eQcG1FE3nPj2-fill-1" offset="100%" stop-color="#e2e5ed"/></linearGradient></defs><circle r="62.8325" transform="translate(63.434 62.8325)" fill="url(#eQcG1FE3nPj2-fill)"/><path d="M91.6459,69.9102h-55.1107c-5.939,0-10.8008,4.6774-10.8008,10.4024c0,5.7176,4.8618,10.4024,10.8008,10.4024h55.1107c5.9389,0,10.8011-4.6774,10.8011-10.4024.007-5.725-4.8548-10.4024-10.8011-10.4024Z" fill="#edc391"/><path d="M93.4252,43.4631c-7.0898-10.786-16.2307-14.4748-29.5104-14.4748s-22.4205,3.6814-29.5104,14.4748c-5.1938,7.9088-6.448,20.3401-4.8471,33.1476c1.542,12.3132,2.8183,19.0711,10.4615,25.9693c6.6398,5.99,15.6552,7.282,23.387,7.282h1.0181c7.7317,0,16.7545-1.292,23.387-7.282c7.6432-6.8982,8.9195-13.6561,10.4614-25.9693c1.601-12.8075.3468-25.2462-4.8471-33.1476Z" fill="#f7dece"/><path d="M74.9048,44.6416c.1033-.1107.2066-.214.3099-.3247.0737-.0811.1475-.1696.2213-.2508.1697-.1992.332-.3984.4869-.605l.0664-.0885c.1476-.1992.2804-.4058.4132-.6197.0368-.059.0737-.1254.1106-.1845.1254-.2139.2509-.4279.3689-.6566.0221-.0368.0369-.0664.0516-.1032.2804-.5534.5238-1.151.723-1.778l.0222-.0664c.4058-1.3059.6418-2.7593.6418-4.3971c0-3.2756-1.1804-5.8652-2.9805-7.8203-.0222-.0221-.0369-.0368-.0517-.059-.1401-.1475-.2877-.2951-.4352-.4426l-.0886-.0886c-.1717-.1633-.3489-.3207-.5312-.4721-.1475-.1254-.2951-.2435-.4426-.3615-.0369-.0295-.0738-.0517-.1033-.0812l-.4869-.3541c-.0295-.0148-.0517-.0369-.0812-.0516-.5902-.3984-1.2025-.7526-1.837-1.055-.0221-.0148-.0516-.0222-.0738-.0369-.1844-.0886-.3689-.1697-.5533-.2509l-.1697-.0737c-.1623-.0664-.3246-.1328-.4869-.1919-.059-.0221-.1254-.0442-.1844-.0664-.155-.059-.3099-.1106-.4575-.1623l-.1992-.0664c-.1549-.0516-.3024-.0959-.4574-.1401-.0664-.0222-.1328-.0369-.2065-.0591-.155-.0442-.3099-.0811-.4648-.118l-.1918-.0443c-.1697-.0369-.3394-.0737-.5017-.1106-.0517-.0074-.1033-.0222-.1549-.0295-.4353-.096-.8706-.1624-1.3059-.214-.059-.0074-.118-.0074-.177-.0148-.155-.0147-.3025-.0295-.4575-.0368-.0885-.0074-.1696-.0074-.2582-.0148-.1254-.0074-.2434-.0148-.3615-.0148-.0959,0-.1918-.0073-.2951-.0073-.0664,0-.1328-.0074-.1918-.0074h-.0738c-.3172,0-.6344.0147-.9443.0369-.059.0074-.118.0074-.1771.0147-.3172.0295-.6271.0591-.9222.1107-3.6224.5902-6.5513,2.4936-8.3809,4.3528-1.0993,1.114-1.8002,2.2133-2.0141,3.0027h.0074c2.346-.5976,5.3782-1.1214,8.7572-1.2985c4.5741-.3172,8.3957,2.2871,8.2113,6.2857-.0222.4796-.0812.9296-.1624,1.3501l-.0221.1254c-.0369.1624-.0811.3247-.1254.4796-.0221.0738-.0443.1475-.059.2139-.0443.1328-.0886.2656-.1402.3984-.0295.0812-.0664.1623-.1033.2435-.0516.118-.1033.2287-.1549.332-.0443.0885-.0885.1697-.1402.2508-.0516.0959-.1107.1918-.1697.2804s-.1254.177-.1844.2656c-.0517.0737-.1033.1475-.1623.2213-.0959.118-.1992.2287-.3025.332-.0295.0295-.059.0664-.0885.0959-.1402.1402-.2878.2656-.4427.391-.0295.0221-.0664.0443-.0959.0664-.1256.0976-.2561.1887-.391.273-.0443.0221-.0812.0516-.1254.0738-.1328.0811-.2656.1549-.3984.2213-.0443.0221-.0812.0442-.1254.059-.1402.0664-.2878.1328-.4427.1918-.0295.0148-.0664.0295-.1033.0369-.1697.0664-.3394.1254-.5164.1771-.0148.0073-.0295.0073-.0443.0147-.7968.2361-1.6526.3394-2.5231.3394-2.6264,0-5.3488-.9738-6.9128-2.3682-.1293-.1176-.2974-.1833-.4722-.1845-.0369,0-.0738.0148-.1033.0222s-.0664.0074-.0959.0221c-.0443.0148-.0885.0295-.1328.0517-.0738.0368-.1328.0811-.1918.1328-.0148.0147-.0221.0295-.0369.0442-.0516.059-.0959.1328-.1328.2066-.0074.0147-.0074.0221-.0148.0369-.0368.0959-.059.2065-.0442.3246.2213,2.228,1.6231,5.0168,4.9577,7.112c3.1724,1.9993,9.8491,2.0215,14.6003-1.2321l.1328-.0885c.1402-.1033.2877-.2066.4279-.3098.059-.0443.1254-.096.1844-.1476.2066-.1623.4058-.332.5976-.5091l.2878-.2655c.1032-.0812.1918-.1771.2803-.2656Z" fill="#312d2d"/><path d="M74.9048,44.6416c.1033-.1107.2066-.214.3099-.3247.0737-.0811.1475-.1696.2213-.2508.1697-.1992.332-.3984.4869-.605l.0664-.0885c.1476-.1992.2804-.4058.4132-.6197.0368-.059.0737-.1254.1106-.1845.1254-.2139.2509-.4279.3689-.6566.0221-.0368.0369-.0664.0516-.1032.2804-.5534.5238-1.151.723-1.778l.0222-.0664c.4057-1.3059.6418-2.7593.6418-4.3971c0-3.2756-1.1804-5.8652-2.9805-7.8203-.0222-.0221-.0369-.0368-.0517-.059-.1401-.1475-.2877-.2951-.4352-.4426l-.0886-.0886c-.1717-.1633-.3489-.3207-.5312-.4721-.1475-.1254-.2951-.2435-.4426-.3615-.0369-.0295-.0738-.0517-.1033-.0812l-.4869-.3541c-.0295-.0148-.0517-.0369-.0812-.0516-.5902-.3984-1.2025-.7526-1.837-1.055-.0221-.0148-.0516-.0222-.0738-.0369-.1844-.0886-.3689-.1697-.5533-.2509l-.1697-.0737c-.1623-.0664-.3246-.1328-.4869-.1919-.059-.0221-.1254-.0442-.1844-.0664-.155-.059-.3099-.1106-.4575-.1623l-.1992-.0664c-.1549-.0516-.3024-.0959-.4574-.1401-.0664-.0222-.1328-.0369-.2065-.0591-.155-.0442-.3099-.0811-.4648-.118l-.1918-.0443c-.1697-.0369-.3394-.0737-.5017-.1106-.0517-.0074-.1033-.0222-.1549-.0295-.4353-.096-.8706-.1624-1.3059-.214-.059-.0074-.118-.0074-.177-.0148-.155-.0147-.3025-.0295-.4575-.0368-.0885-.0074-.1696-.0074-.2582-.0148-.1254-.0074-.2434-.0148-.3615-.0148-.0959,0-.1918-.0073-.2951-.0073-.0664,0-.1328-.0074-.1918-.0074h-.0738c-.3172,0-.6344.0147-.9443.0369-.059.0074-.118.0074-.1771.0147-.3172.0295-.6271.0591-.9222.1107-3.6224.5902-6.5513,2.4936-8.3809,4.3528-1.0993,1.114-1.8002,2.2133-2.0141,3.0027h.0074c2.346-.5976,5.3782-1.1214,8.7572-1.2985c4.5741-.3172,8.3957,2.2871,8.2113,6.2857-.0222.4796-.0812.9296-.1624,1.3501l-.0221.1254c-.0369.1624-.0811.3247-.1254.4796-.0221.0738-.0443.1475-.059.2139-.0443.1328-.0886.2656-.1402.3984-.0295.0812-.0664.1623-.1033.2435-.0516.118-.1033.2287-.1549.332-.0443.0885-.0885.1697-.1402.2508-.0516.0959-.1107.1918-.1697.2804s-.1254.177-.1844.2656c-.0517.0737-.1033.1475-.1623.2213-.0959.118-.1992.2287-.3025.332-.0295.0295-.059.0664-.0885.0959-.1402.1402-.2878.2656-.4427.391-.0295.0221-.0664.0443-.0959.0664-.1256.0976-.2561.1887-.391.273-.0443.0221-.0812.0516-.1254.0738-.1328.0811-.2656.1549-.3984.2213-.0443.0221-.0812.0442-.1254.059-.1402.0664-.2878.1328-.4427.1918-.0295.0148-.0664.0295-.1033.0369-.1697.0664-.3394.1254-.5164.1771-.0148.0073-.0295.0073-.0443.0147-.7968.2361-1.6526.3394-2.5231.3394-2.6264,0-5.3488-.9738-6.9128-2.3682-.1293-.1176-.2974-.1833-.4722-.1845-.0369,0-.0738.0148-.1033.0222s-.0664.0074-.0959.0221c-.0443.0148-.0885.0295-.1328.0517-.0738.0368-.1328.0811-.1918.1328-.0148.0147-.0221.0295-.0369.0442-.0516.059-.0959.1328-.1328.2066-.0074.0147-.0074.0221-.0148.0369-.0368.0959-.059.2065-.0442.3246.2213,2.228,1.6231,5.0168,4.9577,7.112c3.1724,1.9993,9.8491,2.0215,14.6003-1.2321l.1328-.0885c.1402-.1033.2877-.2066.4279-.3099.059-.0442.1254-.0959.1844-.1475.2066-.1623.4058-.332.5976-.5091l.2878-.2655c.1032-.0812.1918-.1771.2803-.2656Z" fill="#c82333"/><path d="M67.9367,80.294c-.0992-.0407-.2034-.068-.3098-.0811h-6.8612c-.1033.0147-.2066.0369-.3098.0811-.6198.2509-.9665.9001-.6714,1.5789.2951.6861,1.6599,2.6116,4.4118,2.6116s4.1167-1.9255,4.4118-2.6116c.2877-.6862-.0516-1.328-.6714-1.5789Z" fill="#dba689"/><path d="M48.0522,80.973c2.6403,0,4.7807-2.2164,4.7807-4.9504s-2.1404-4.9503-4.7807-4.9503-4.7807,2.2163-4.7807,4.9503s2.1404,4.9504,4.7807,4.9504Z" fill="#312d2d"/><path d="M80.3061,80.973c2.6403,0,4.7807-2.2164,4.7807-4.9504s-2.1404-4.9503-4.7807-4.9503-4.7807,2.2163-4.7807,4.9503s2.1404,4.9504,4.7807,4.9504Z" fill="#312d2d"/><path d="M71.0677,90.5754c-2.6559,1.5788-11.3615,1.5788-14.01,0-1.5272-.9075-3.0839.4795-2.4494,1.8665.6197,1.3649,5.3709,4.5225,9.4802,4.5225c4.102,0,8.7941-3.1576,9.4138-4.5225.6271-1.387-.9148-2.774-2.4346-1.8665Z" fill="#444"/></svg>
